<svg width="19" height="20" viewBox="0 0 19 20" fill="none" 
xmlns="http://www.w3.org/2000/svg"><path fill-rule="evenodd" 
clip-rule="evenodd" d="M9.09 0C4.079 0 0 4.038 0 9l.052 8a3.518 3.518 0 0 
0 3.483 3c1.186 0 2.095-.417 2.7-1.174a4.065 4.065 0 0 0 
5.725-.014c.607.762 1.519 1.188 2.686 1.188 1.95 0 3.536-1.57 
3.536-3.5V9c0-4.962-4.078-9-9.091-9ZM5.924 10.966a2.222 2.222 0 1 0 
0-4.444 2.222 2.222 0 0 0 0 4.444Zm8.89-2.222a2.222 2.222 0 1 1-4.445 0 
2.222 2.222 0 0 1 4.444 0Z" fill="#5856D6"/></svg>
